<svg width="32" height="32" viewBox="0 0 10 8" fill="none" xmlns="http://www.w3.org/2000/svg">
<g clip-path="url(#clip0_0_1)">
<path d="M4.37146 5.02C3.74813 5.02 3.28646 4.84333 2.98646 4.49C2.8798 4.36333 2.79313 4.195 2.72646 3.985C2.6598 3.775 2.62646 3.52 2.62646 3.22C2.62646 2.92 2.6748 2.65167 2.77146 2.415C2.87146 2.175 3.00646 1.99 3.17646 1.86C3.50646 1.61667 3.9048 1.495 4.37146 1.495C4.52146 1.495 4.66813 1.50667 4.81146 1.53C4.9548 1.55 5.06146 1.57167 5.13146 1.595L5.23646 1.63L5.22146 1.68C4.96146 1.59 4.67813 1.545 4.37146 1.545C4.01813 1.545 3.72313 1.66 3.48646 1.89C3.30646 2.06 3.1798 2.31 3.10646 2.64C3.06313 2.82667 3.04146 3.055 3.04146 3.325C3.04146 3.595 3.0798 3.845 3.15646 4.075C3.23313 4.30167 3.3198 4.47 3.41646 4.58C3.51646 4.69 3.63646 4.77833 3.77646 4.845C3.91646 4.90833 4.02813 4.945 4.11146 4.955C4.1948 4.965 4.29313 4.97 4.40646 4.97C4.52313 4.97 4.67813 4.95667 4.87146 4.93V3.9H4.26646V3.85H5.50146V3.9H5.28646V4.885C5.03313 4.975 4.72813 5.02 4.37146 5.02Z" fill="#38BDF8"/>
<path d="M3.84854 3.54C4.2352 3.51333 4.57687 3.5 4.87354 3.5C5.69687 3.5 6.10854 3.775 6.10854 4.325C6.10854 4.55833 6.05187 4.76667 5.93854 4.95C5.8252 5.13333 5.6302 5.255 5.35354 5.315L6.35354 7H5.88854L4.90854 5.345H4.26354V7H3.84854V3.54ZM4.87354 3.55C4.6802 3.55 4.47687 3.56167 4.26354 3.585V5.295H5.00354C5.47354 5.275 5.70854 4.955 5.70854 4.335C5.70854 4.08167 5.63854 3.88833 5.49854 3.755C5.35854 3.61833 5.1502 3.55 4.87354 3.55Z" fill="#38BDF8"/>
</g>
<circle cx="5" cy="4" r="3.9" stroke="#38BDF8" stroke-width="0.2"/>
<defs>
<clipPath id="clip0_0_1">
<rect width="10" height="8" fill="white"/>
</clipPath>
</defs>
</svg>
